<svg aria-hidden="true" style="position:absolute;width:0;height:0" xmlns="http://www.w3.org/2000/svg" overflow="hidden"><defs><symbol id="icon-facebook" viewBox="0 0 16 32"><path d="M14.88.246v5.071s-3.742-.369-4.677 1.058c-.505.788-.209 3.077-.246 4.726h4.948c-.418 1.92-.714 3.225-1.022 4.898H9.92v15.754H3.052V16.061H.135v-4.96h2.88c.16-3.631.209-7.225 2.006-9.046C7.052 0 8.984.246 14.879.246z"/></symbol><symbol id="icon-instagram" viewBox="0 0 32 32"><path d="M27.938 31.754H4.307a3.934 3.934 0 01-3.938-3.938V4.185A3.934 3.934 0 014.307.247h23.631a3.934 3.934 0 013.938 3.938v23.631a3.934 3.934 0 01-3.938 3.938zM16.123 9.895a6.097 6.097 0 00-5.538 3.545c-.012.025-.025.049-.025.062-.062.135-.111.271-.16.406l-.074.185c-.049.135-.086.283-.123.418-.012.062-.037.135-.049.197-.025.148-.049.295-.074.455 0 .062-.025.123-.025.185a6.104 6.104 0 006.068 6.757 6.103 6.103 0 006.068-6.757c0-.062-.025-.123-.025-.185-.025-.16-.049-.308-.074-.455-.025-.062-.037-.135-.049-.197-.037-.135-.074-.283-.123-.418l-.074-.185c-.049-.135-.098-.271-.16-.406a.201.201 0 00-.025-.062 6.1 6.1 0 00-5.538-3.545zm12.209-4.529a1.57 1.57 0 00-1.575-1.575h-3.151a1.57 1.57 0 00-1.575 1.575v3.151a1.57 1.57 0 001.575 1.575h3.151a1.57 1.57 0 001.575-1.575V5.366zm0 8.074h-2.905a9.649 9.649 0 01-9.304 12.209A9.649 9.649 0 016.819 13.44H3.914v13.194a1.57 1.57 0 001.575 1.575h21.268a1.57 1.57 0 001.575-1.575V13.44z"/></symbol><symbol id="icon-magnifying-glass" viewBox="0 0 32 32"><path d="M30.791 26.631c.533.533.853 1.262.853 2.08a2.936 2.936 0 01-2.933 2.933 2.99 2.99 0 01-2.08-.853l-8.587-8.604a11.69 11.69 0 01-5.956 1.636C5.599 23.823.355 18.561.355 12.09.355 5.601 5.599.357 12.088.357S23.821 5.601 23.821 12.09c0 2.169-.604 4.196-1.636 5.956l8.604 8.587zM12.089 3.289c-4.853 0-8.8 3.947-8.8 8.8s3.947 8.8 8.8 8.8c4.853 0 8.8-3.947 8.8-8.8s-3.947-8.8-8.8-8.8z"/></symbol><symbol id="icon-pinterest" viewBox="0 0 26 32"><path d="M11.138 20.738c-.258 1.034-.517 2.105-.788 3.151-.258 1.046-.492 2.092-.874 3.04-.64 1.588-1.452 3.102-2.523 4.345-.702.812-.554.492-.763.443-.172-.037-.185-.197-.209-.418-.172-1.255-.062-2.708 0-4.111.074-1.612.418-2.942.726-4.283.603-2.535 1.169-5.022 1.772-7.582.037-.172.148-.455.111-.542-.271-.714-.455-1.354-.529-2.092a6.676 6.676 0 01.172-2.4c.332-1.305 1.12-2.449 2.326-2.88.775-.258 1.625-.135 2.142.172.529.308.898.812 1.058 1.526.185.763.049 1.662-.098 2.326-.32 1.502-.751 2.634-1.145 4.074-.197.726-.418 1.465-.234 2.228a2.53 2.53 0 001.046 1.575c.517.382 1.132.591 1.994.566 1.514-.062 2.56-1.022 3.262-1.932 1.12-1.465 1.809-3.434 2.068-5.772.074-.751.135-1.625.086-2.474-.111-1.588-.603-2.855-1.391-3.84-.751-.935-1.809-1.686-3.089-2.105s-3.052-.554-4.615-.283C8.788 3.95 6.781 5.575 5.6 7.815c-.628 1.169-1.034 2.523-1.034 4.197 0 1.292.32 2.289.837 3.077.16.246.394.455.554.738.234.394-.025.997-.148 1.428-.135.529-.148 1.243-.751 1.255-.258.012-.578-.172-.788-.295-1.612-.886-2.585-2.498-2.978-4.603-.246-1.268-.246-2.745 0-3.975a11.344 11.344 0 011.145-3.175c1.009-1.858 2.474-3.335 4.258-4.394C8.073 1.256 9.624.69 11.507.419c.628-.098 1.268-.135 1.969-.16a11.86 11.86 0 015.329.985 10.824 10.824 0 013.668 2.646c1.034 1.132 1.785 2.437 2.265 4.074.246.849.48 1.76.48 2.818 0 1.046-.222 1.982-.369 2.917-.591 3.471-2.24 6.326-4.726 7.938a7.823 7.823 0 01-2.166.997c-.812.246-1.748.418-2.757.357-.972-.074-1.772-.332-2.437-.714s-1.231-.837-1.625-1.538z"/></symbol><symbol id="icon-shopping-cart" viewBox="0 0 32 32"><path d="M31.52 9.173l-4.409 9.778a1.46 1.46 0 01-1.244.871l-12.658.836.729 2.098h13.796c1.618 0 2.933 1.316 2.933 2.933s-1.316 2.933-2.933 2.933a2.936 2.936 0 01-2.933-2.933H11.112c0 1.618-1.316 2.933-2.933 2.933s-2.933-1.316-2.933-2.933a2.936 2.936 0 012.933-2.933h2.649L5.175 6.614h-3.36c-.8 0-1.458-.64-1.458-1.458S1.015 3.68 1.815 3.68h4.409c.64 0 1.173.427 1.387.996l.853 2.436h21.707a1.469 1.469 0 011.352 2.062zm-22.027.871l2.702 7.751 12.604-.853 3.111-6.898H9.492z"/></symbol><symbol id="icon-twitter" viewBox="0 0 32 32"><path d="M21.551 3.2c2.511-.049 3.84.874 5.108 2.031 1.083-.098 2.486-.702 3.311-1.12l.812-.443c-.48 1.28-1.12 2.277-2.105 3.04-.209.172-.431.394-.702.505v.012c1.403-.012 2.56-.64 3.655-.985v.012c-.578.911-1.354 1.846-2.191 2.511-.332.271-.677.542-1.009.8.012 1.489-.025 2.905-.295 4.16-1.625 7.249-5.895 12.172-12.665 14.289-2.437.751-6.363 1.071-9.145.382-1.391-.345-2.634-.738-3.803-1.243a16.05 16.05 0 01-1.834-.948c-.185-.111-.382-.234-.566-.345.628.012 1.366.185 2.068.074.628-.098 1.255-.074 1.846-.197 1.465-.32 2.757-.751 3.877-1.403.542-.32 1.366-.689 1.748-1.145-.726.012-1.378-.16-1.92-.345-2.092-.738-3.311-2.105-4.098-4.135.628.062 2.462.234 2.88-.135-.8-.037-1.563-.505-2.105-.849-1.686-1.046-3.065-2.806-3.052-5.526.222.098.443.209.665.308.418.185.849.283 1.354.382.222.049.64.172.886.074h-.037c-.32-.369-.849-.628-1.182-1.034C1.981 10.585.96 8.518 1.6 6.069a8.013 8.013 0 01.702-1.686c.012 0 .025.012.025.012.135.271.406.455.591.677.554.689 1.231 1.305 1.92 1.846 2.363 1.846 4.492 2.978 7.902 3.815.862.209 1.871.382 2.905.382-.295-.849-.197-2.215.025-3.04.578-2.055 1.834-3.545 3.668-4.332.431-.197.923-.332 1.428-.443.271-.037.529-.062.788-.098z"/></symbol></defs></svg>